<mxfile host="Electron" modified="2024-06-12T18:08:30.139Z" agent="Mozilla/5.0 (Windows NT 10.0; Win64; x64) AppleWebKit/537.36 (KHTML, like Gecko) draw.io/24.5.1 Chrome/124.0.6367.207 Electron/30.0.6 Safari/537.36" etag="auA9rt7nzCq6OJrYomiU" version="24.5.1" type="device">
  <diagram id="C5RBs43oDa-KdzZeNtuy" name="Page-1">
    <mxGraphModel dx="1052" dy="705" grid="1" gridSize="10" guides="1" tooltips="1" connect="1" arrows="1" fold="1" page="1" pageScale="1" pageWidth="827" pageHeight="1169" math="0" shadow="0">
      <root>
        <mxCell id="WIyWlLk6GJQsqaUBKTNV-0" />
        <mxCell id="WIyWlLk6GJQsqaUBKTNV-1" parent="WIyWlLk6GJQsqaUBKTNV-0" />
        <mxCell id="WIyWlLk6GJQsqaUBKTNV-2" value="" style="rounded=0;html=1;jettySize=auto;orthogonalLoop=1;fontSize=11;endArrow=block;endFill=0;endSize=6;strokeWidth=1;shadow=0;labelBackgroundColor=none;edgeStyle=orthogonalEdgeStyle;exitX=0.5;exitY=1;exitDx=0;exitDy=0;entryX=0.5;entryY=0;entryDx=0;entryDy=0;" parent="WIyWlLk6GJQsqaUBKTNV-1" source="s7DfnmzeCrfPufH90l0C-0" target="WIyWlLk6GJQsqaUBKTNV-6" edge="1">
          <mxGeometry relative="1" as="geometry">
            <mxPoint x="320" y="158" as="sourcePoint" />
            <mxPoint x="200" y="209" as="targetPoint" />
          </mxGeometry>
        </mxCell>
        <mxCell id="WIyWlLk6GJQsqaUBKTNV-5" value="Nie" style="edgeStyle=orthogonalEdgeStyle;rounded=0;html=1;jettySize=auto;orthogonalLoop=1;fontSize=11;endArrow=block;endFill=0;endSize=6;strokeWidth=1;shadow=0;labelBackgroundColor=none;entryX=0;entryY=0.75;entryDx=0;entryDy=0;verticalAlign=middle;labelPosition=right;verticalLabelPosition=middle;align=center;spacing=2;exitX=0;exitY=0.5;exitDx=0;exitDy=0;" parent="WIyWlLk6GJQsqaUBKTNV-1" source="WIyWlLk6GJQsqaUBKTNV-6" target="s7DfnmzeCrfPufH90l0C-0" edge="1">
          <mxGeometry x="-0.0581" y="-10" relative="1" as="geometry">
            <mxPoint as="offset" />
            <mxPoint x="420" y="248" as="targetPoint" />
            <Array as="points">
              <mxPoint x="270" y="209" />
              <mxPoint x="220" y="209" />
              <mxPoint x="220" y="143" />
            </Array>
          </mxGeometry>
        </mxCell>
        <mxCell id="b5bId7cN8p5KwJCor4pT-3" value="" style="edgeStyle=orthogonalEdgeStyle;rounded=0;orthogonalLoop=1;jettySize=auto;html=1;endArrow=block;endFill=0;" parent="WIyWlLk6GJQsqaUBKTNV-1" source="WIyWlLk6GJQsqaUBKTNV-6" target="s7DfnmzeCrfPufH90l0C-3" edge="1">
          <mxGeometry relative="1" as="geometry" />
        </mxCell>
        <mxCell id="b5bId7cN8p5KwJCor4pT-6" value="Tak" style="edgeLabel;html=1;align=left;verticalAlign=middle;resizable=0;points=[];horizontal=1;labelBackgroundColor=none;labelPosition=right;verticalLabelPosition=middle;spacing=2;" parent="b5bId7cN8p5KwJCor4pT-3" vertex="1" connectable="0">
          <mxGeometry x="-0.3209" relative="1" as="geometry">
            <mxPoint as="offset" />
          </mxGeometry>
        </mxCell>
        <mxCell id="WIyWlLk6GJQsqaUBKTNV-6" value="Kompletne?" style="rhombus;html=1;shadow=0;fontFamily=Helvetica;fontSize=12;align=center;strokeWidth=1;spacing=0;spacingTop=0;labelBackgroundColor=none;" parent="WIyWlLk6GJQsqaUBKTNV-1" vertex="1">
          <mxGeometry x="270" y="178" width="100" height="60" as="geometry" />
        </mxCell>
        <mxCell id="s7DfnmzeCrfPufH90l0C-0" value="Analiza &lt;br&gt;interesariuszy" style="rounded=0;whiteSpace=wrap;html=1;" parent="WIyWlLk6GJQsqaUBKTNV-1" vertex="1">
          <mxGeometry x="260" y="98" width="120" height="60" as="geometry" />
        </mxCell>
        <mxCell id="s7DfnmzeCrfPufH90l0C-2" value="" style="edgeStyle=orthogonalEdgeStyle;rounded=0;orthogonalLoop=1;jettySize=auto;html=1;dashed=1;" parent="WIyWlLk6GJQsqaUBKTNV-1" source="s7DfnmzeCrfPufH90l0C-1" target="s7DfnmzeCrfPufH90l0C-0" edge="1">
          <mxGeometry relative="1" as="geometry" />
        </mxCell>
        <mxCell id="s7DfnmzeCrfPufH90l0C-1" value="Opis środowiska &lt;br&gt;zewnętrznego &lt;br&gt;i wewnętrznego &lt;br&gt;organizacji" style="shape=parallelogram;perimeter=parallelogramPerimeter;whiteSpace=wrap;html=1;fixedSize=1;" parent="WIyWlLk6GJQsqaUBKTNV-1" vertex="1">
          <mxGeometry x="10" y="93" width="170" height="70" as="geometry" />
        </mxCell>
        <mxCell id="b5bId7cN8p5KwJCor4pT-2" value="" style="edgeStyle=orthogonalEdgeStyle;rounded=0;orthogonalLoop=1;jettySize=auto;html=1;endArrow=block;endFill=0;entryX=0.5;entryY=0;entryDx=0;entryDy=0;exitX=0.5;exitY=1;exitDx=0;exitDy=0;" parent="WIyWlLk6GJQsqaUBKTNV-1" source="s7DfnmzeCrfPufH90l0C-3" target="b5bId7cN8p5KwJCor4pT-18" edge="1">
          <mxGeometry relative="1" as="geometry">
            <mxPoint x="650" y="527" as="sourcePoint" />
            <mxPoint x="260" y="407" as="targetPoint" />
          </mxGeometry>
        </mxCell>
        <mxCell id="s7DfnmzeCrfPufH90l0C-3" value="Określenie celów relacji z poszczególnymi grupami" style="rounded=0;whiteSpace=wrap;html=1;" parent="WIyWlLk6GJQsqaUBKTNV-1" vertex="1">
          <mxGeometry x="260" y="278" width="120" height="60" as="geometry" />
        </mxCell>
        <mxCell id="b5bId7cN8p5KwJCor4pT-4" value="" style="edgeStyle=orthogonalEdgeStyle;rounded=0;orthogonalLoop=1;jettySize=auto;html=1;dashed=1;entryX=0;entryY=0.5;entryDx=0;entryDy=0;" parent="WIyWlLk6GJQsqaUBKTNV-1" source="b5bId7cN8p5KwJCor4pT-5" target="s7DfnmzeCrfPufH90l0C-3" edge="1">
          <mxGeometry relative="1" as="geometry">
            <mxPoint x="250" y="313" as="targetPoint" />
          </mxGeometry>
        </mxCell>
        <mxCell id="b5bId7cN8p5KwJCor4pT-5" value="Misja, wartości, cele organizacji" style="shape=parallelogram;perimeter=parallelogramPerimeter;whiteSpace=wrap;html=1;fixedSize=1;" parent="WIyWlLk6GJQsqaUBKTNV-1" vertex="1">
          <mxGeometry x="10" y="273" width="170" height="70" as="geometry" />
        </mxCell>
        <mxCell id="b5bId7cN8p5KwJCor4pT-15" value="Nie" style="edgeStyle=orthogonalEdgeStyle;rounded=0;html=1;jettySize=auto;orthogonalLoop=1;fontSize=11;endArrow=block;endFill=0;endSize=6;strokeWidth=1;shadow=0;labelBackgroundColor=none;entryX=0;entryY=0.75;entryDx=0;entryDy=0;verticalAlign=middle;labelPosition=right;verticalLabelPosition=middle;align=center;spacing=2;" parent="WIyWlLk6GJQsqaUBKTNV-1" source="b5bId7cN8p5KwJCor4pT-18" target="s7DfnmzeCrfPufH90l0C-3" edge="1">
          <mxGeometry x="-0.0581" y="-10" relative="1" as="geometry">
            <mxPoint as="offset" />
            <mxPoint x="380" y="297" as="targetPoint" />
            <Array as="points">
              <mxPoint x="220" y="386" />
              <mxPoint x="220" y="323" />
            </Array>
          </mxGeometry>
        </mxCell>
        <mxCell id="b5bId7cN8p5KwJCor4pT-16" value="" style="edgeStyle=orthogonalEdgeStyle;rounded=0;orthogonalLoop=1;jettySize=auto;html=1;endArrow=block;endFill=0;entryX=0.5;entryY=0;entryDx=0;entryDy=0;" parent="WIyWlLk6GJQsqaUBKTNV-1" source="b5bId7cN8p5KwJCor4pT-18" target="b5bId7cN8p5KwJCor4pT-22" edge="1">
          <mxGeometry relative="1" as="geometry">
            <mxPoint x="320" y="439" as="targetPoint" />
          </mxGeometry>
        </mxCell>
        <mxCell id="b5bId7cN8p5KwJCor4pT-17" value="Tak" style="edgeLabel;html=1;align=left;verticalAlign=middle;resizable=0;points=[];horizontal=1;labelBackgroundColor=none;labelPosition=right;verticalLabelPosition=middle;spacing=2;" parent="b5bId7cN8p5KwJCor4pT-16" vertex="1" connectable="0">
          <mxGeometry x="-0.3209" relative="1" as="geometry">
            <mxPoint as="offset" />
          </mxGeometry>
        </mxCell>
        <mxCell id="b5bId7cN8p5KwJCor4pT-18" value="Kompletne?" style="rhombus;html=1;shadow=0;fontFamily=Helvetica;fontSize=12;align=center;strokeWidth=1;spacing=0;spacingTop=0;labelBackgroundColor=none;" parent="WIyWlLk6GJQsqaUBKTNV-1" vertex="1">
          <mxGeometry x="270" y="356" width="100" height="60" as="geometry" />
        </mxCell>
        <mxCell id="b5bId7cN8p5KwJCor4pT-20" value="" style="edgeStyle=orthogonalEdgeStyle;rounded=0;orthogonalLoop=1;jettySize=auto;html=1;endArrow=block;endFill=0;entryX=0.5;entryY=0;entryDx=0;entryDy=0;exitX=0.5;exitY=1;exitDx=0;exitDy=0;" parent="WIyWlLk6GJQsqaUBKTNV-1" source="b5bId7cN8p5KwJCor4pT-19" target="s7DfnmzeCrfPufH90l0C-0" edge="1">
          <mxGeometry relative="1" as="geometry">
            <mxPoint x="570" y="119" as="sourcePoint" />
            <mxPoint x="450" y="159" as="targetPoint" />
          </mxGeometry>
        </mxCell>
        <mxCell id="b5bId7cN8p5KwJCor4pT-19" value="Start" style="rounded=1;whiteSpace=wrap;html=1;arcSize=50;imageHeight=24;" parent="WIyWlLk6GJQsqaUBKTNV-1" vertex="1">
          <mxGeometry x="280" y="57" width="80" height="20" as="geometry" />
        </mxCell>
        <mxCell id="b5bId7cN8p5KwJCor4pT-21" value="" style="edgeStyle=orthogonalEdgeStyle;rounded=0;orthogonalLoop=1;jettySize=auto;html=1;endArrow=block;endFill=0;entryX=0.5;entryY=0;entryDx=0;entryDy=0;exitX=0.5;exitY=1;exitDx=0;exitDy=0;" parent="WIyWlLk6GJQsqaUBKTNV-1" source="b5bId7cN8p5KwJCor4pT-22" target="b5bId7cN8p5KwJCor4pT-26" edge="1">
          <mxGeometry relative="1" as="geometry">
            <mxPoint x="650" y="708" as="sourcePoint" />
            <mxPoint x="260" y="588" as="targetPoint" />
          </mxGeometry>
        </mxCell>
        <mxCell id="b5bId7cN8p5KwJCor4pT-29" value="" style="edgeStyle=orthogonalEdgeStyle;rounded=0;orthogonalLoop=1;jettySize=auto;html=1;exitX=1;exitY=0.5;exitDx=0;exitDy=0;dashed=1;dashPattern=8 8;" parent="WIyWlLk6GJQsqaUBKTNV-1" source="s7DfnmzeCrfPufH90l0C-3" target="b5bId7cN8p5KwJCor4pT-28" edge="1">
          <mxGeometry relative="1" as="geometry" />
        </mxCell>
        <mxCell id="b5bId7cN8p5KwJCor4pT-22" value="Sformułowanie planu komunikacji z interesariuszami" style="rounded=0;whiteSpace=wrap;html=1;" parent="WIyWlLk6GJQsqaUBKTNV-1" vertex="1">
          <mxGeometry x="260" y="459" width="120" height="60" as="geometry" />
        </mxCell>
        <mxCell id="b5bId7cN8p5KwJCor4pT-23" value="Nie" style="edgeStyle=orthogonalEdgeStyle;rounded=0;html=1;jettySize=auto;orthogonalLoop=1;fontSize=11;endArrow=block;endFill=0;endSize=6;strokeWidth=1;shadow=0;labelBackgroundColor=none;entryX=0;entryY=0.75;entryDx=0;entryDy=0;verticalAlign=middle;labelPosition=right;verticalLabelPosition=middle;align=center;spacing=2;" parent="WIyWlLk6GJQsqaUBKTNV-1" source="b5bId7cN8p5KwJCor4pT-26" target="b5bId7cN8p5KwJCor4pT-22" edge="1">
          <mxGeometry x="-0.0581" y="-10" relative="1" as="geometry">
            <mxPoint as="offset" />
            <mxPoint x="380" y="478" as="targetPoint" />
            <Array as="points">
              <mxPoint x="220" y="567" />
              <mxPoint x="220" y="504" />
            </Array>
          </mxGeometry>
        </mxCell>
        <mxCell id="b5bId7cN8p5KwJCor4pT-24" value="" style="edgeStyle=orthogonalEdgeStyle;rounded=0;orthogonalLoop=1;jettySize=auto;html=1;endArrow=block;endFill=0;entryX=0.5;entryY=0;entryDx=0;entryDy=0;" parent="WIyWlLk6GJQsqaUBKTNV-1" source="b5bId7cN8p5KwJCor4pT-26" target="b5bId7cN8p5KwJCor4pT-35" edge="1">
          <mxGeometry relative="1" as="geometry">
            <mxPoint x="320" y="620" as="targetPoint" />
            <Array as="points" />
          </mxGeometry>
        </mxCell>
        <mxCell id="b5bId7cN8p5KwJCor4pT-25" value="Tak" style="edgeLabel;html=1;align=left;verticalAlign=middle;resizable=0;points=[];horizontal=1;labelBackgroundColor=none;labelPosition=right;verticalLabelPosition=middle;spacing=2;" parent="b5bId7cN8p5KwJCor4pT-24" vertex="1" connectable="0">
          <mxGeometry x="-0.3209" relative="1" as="geometry">
            <mxPoint as="offset" />
          </mxGeometry>
        </mxCell>
        <mxCell id="b5bId7cN8p5KwJCor4pT-26" value="Kompletne?" style="rhombus;html=1;shadow=0;fontFamily=Helvetica;fontSize=12;align=center;strokeWidth=1;spacing=0;spacingTop=0;labelBackgroundColor=none;" parent="WIyWlLk6GJQsqaUBKTNV-1" vertex="1">
          <mxGeometry x="270" y="537" width="100" height="60" as="geometry" />
        </mxCell>
        <mxCell id="b5bId7cN8p5KwJCor4pT-28" value="Cele strategiczne relacji z interesariuszami" style="shape=document;whiteSpace=wrap;html=1;boundedLbl=1;" parent="WIyWlLk6GJQsqaUBKTNV-1" vertex="1">
          <mxGeometry x="440" y="268" width="120" height="80" as="geometry" />
        </mxCell>
        <mxCell id="b5bId7cN8p5KwJCor4pT-30" value="" style="edgeStyle=orthogonalEdgeStyle;rounded=0;orthogonalLoop=1;jettySize=auto;html=1;exitX=1;exitY=0.5;exitDx=0;exitDy=0;dashed=1;dashPattern=8 8;" parent="WIyWlLk6GJQsqaUBKTNV-1" target="b5bId7cN8p5KwJCor4pT-31" edge="1">
          <mxGeometry relative="1" as="geometry">
            <mxPoint x="380" y="489" as="sourcePoint" />
          </mxGeometry>
        </mxCell>
        <mxCell id="b5bId7cN8p5KwJCor4pT-31" value="Plan komunikowania się z interesariuszami" style="shape=document;whiteSpace=wrap;html=1;boundedLbl=1;" parent="WIyWlLk6GJQsqaUBKTNV-1" vertex="1">
          <mxGeometry x="440" y="449" width="120" height="80" as="geometry" />
        </mxCell>
        <mxCell id="b5bId7cN8p5KwJCor4pT-32" value="" style="edgeStyle=orthogonalEdgeStyle;rounded=0;orthogonalLoop=1;jettySize=auto;html=1;exitX=1;exitY=0.5;exitDx=0;exitDy=0;dashed=1;dashPattern=8 8;" parent="WIyWlLk6GJQsqaUBKTNV-1" target="b5bId7cN8p5KwJCor4pT-33" edge="1">
          <mxGeometry relative="1" as="geometry">
            <mxPoint x="380" y="128" as="sourcePoint" />
          </mxGeometry>
        </mxCell>
        <mxCell id="b5bId7cN8p5KwJCor4pT-33" value="Segmentacja intersariuszy" style="shape=document;whiteSpace=wrap;html=1;boundedLbl=1;" parent="WIyWlLk6GJQsqaUBKTNV-1" vertex="1">
          <mxGeometry x="440" y="88" width="120" height="80" as="geometry" />
        </mxCell>
        <mxCell id="b5bId7cN8p5KwJCor4pT-34" value="Dane wejściowe" style="swimlane;whiteSpace=wrap;html=1;" parent="WIyWlLk6GJQsqaUBKTNV-1" vertex="1">
          <mxGeometry x="3" y="15" width="197" height="665" as="geometry">
            <mxRectangle x="3" y="15" width="140" height="30" as="alternateBounds" />
          </mxGeometry>
        </mxCell>
        <mxCell id="b5bId7cN8p5KwJCor4pT-35" value="Koniec" style="rounded=1;whiteSpace=wrap;html=1;arcSize=50;imageHeight=24;" parent="WIyWlLk6GJQsqaUBKTNV-1" vertex="1">
          <mxGeometry x="280" y="639" width="80" height="20" as="geometry" />
        </mxCell>
        <mxCell id="b5bId7cN8p5KwJCor4pT-36" value="Proces" style="swimlane;whiteSpace=wrap;html=1;" parent="WIyWlLk6GJQsqaUBKTNV-1" vertex="1">
          <mxGeometry x="200" y="15" width="220" height="665" as="geometry">
            <mxRectangle x="3" y="15" width="140" height="30" as="alternateBounds" />
          </mxGeometry>
        </mxCell>
        <mxCell id="b5bId7cN8p5KwJCor4pT-37" value="Dokumenty wyjściowe" style="swimlane;whiteSpace=wrap;html=1;" parent="WIyWlLk6GJQsqaUBKTNV-1" vertex="1">
          <mxGeometry x="420" y="15" width="190" height="665" as="geometry">
            <mxRectangle x="420" y="15" width="140" height="30" as="alternateBounds" />
          </mxGeometry>
        </mxCell>
      </root>
    </mxGraphModel>
  </diagram>
</mxfile>
